<?xml version="1.0" standalone="no"?>
<!DOCTYPE svg PUBLIC "-//W3C//DTD SVG 20010904//EN"
 "http://www.w3.org/TR/2001/REC-SVG-20010904/DTD/svg10.dtd">
<svg version="1.0" xmlns="http://www.w3.org/2000/svg"
 width="245.000000pt" height="245.000000pt" viewBox="0 0 245.000000 245.000000"
 preserveAspectRatio="xMidYMid meet">
<metadata>
Created by potrace 1.14, written by Peter Selinger 2001-2017
</metadata>
<g transform="translate(0.000000,245.000000) scale(0.100000,-0.100000)"
fill="#000000" stroke="none">
<path d="M992 2116 c-43 -12 -57 -31 -194 -276 -64 -113 -254 -450 -423 -750
-169 -299 -314 -559 -321 -577 -27 -63 -13 -128 35 -160 24 -17 94 -18 1111
-21 735 -2 1097 0 1121 7 56 17 89 56 89 106 0 48 2 44 -180 370 -37 66 -81
145 -97 175 -209 377 -429 771 -445 793 -23 33 -67 57 -103 57 -54 0 -98 -44
-166 -167 -13 -24 -28 -41 -33 -40 -5 2 -63 100 -128 218 -68 123 -132 225
-149 241 -36 30 -71 38 -117 24z m177 -399 l133 -242 -23 -45 c-13 -25 -40
-72 -59 -105 -20 -33 -50 -85 -67 -115 -17 -30 -62 -111 -102 -178 -39 -68
-71 -126 -71 -129 0 -3 -13 -25 -30 -50 -16 -24 -30 -46 -30 -48 0 -2 -32 -59
-71 -127 -39 -67 -79 -141 -89 -164 l-18 -41 -276 -1 -276 0 12 21 c6 12 92
166 191 342 99 176 189 336 199 355 11 19 28 51 40 70 26 45 153 269 192 340
132 238 202 360 206 360 3 0 65 -109 139 -243z m497 -172 c37 -66 78 -140 92
-165 14 -25 76 -135 137 -245 62 -110 167 -297 233 -416 67 -118 124 -223 127
-231 5 -14 -9 -16 -110 -16 l-117 1 -18 43 c-10 23 -89 166 -176 316 -86 150
-170 298 -187 328 -17 30 -40 71 -52 90 -12 19 -37 62 -55 95 -18 33 -41 76
-52 96 l-20 36 59 101 c32 55 61 98 65 94 3 -4 37 -61 74 -127z m-248 -277
c17 -29 39 -69 50 -88 11 -19 99 -174 197 -345 97 -171 183 -322 191 -336 l13
-26 -485 0 c-393 0 -484 2 -480 13 3 7 60 108 127 226 67 117 136 238 153 269
132 236 192 339 198 339 3 0 20 -24 36 -52z"/>
</g>
</svg>
