<?xml version="1.0" encoding="UTF-8"?>
<svg version="1.1" xmlns="http://www.w3.org/2000/svg" xmlns:xlink="http://www.w3.org/1999/xlink">
<defs>

</defs>
<symbol id="i-arrow" viewBox="0 0 6 12" fill="none" xmlns="http://www.w3.org/2000/svg"><path d="M1 1l4 5-4 5" stroke="#333" stroke-opacity=".5"/></symbol>
<symbol id="i-back-top" viewBox="0 0 14 9" fill="none" xmlns="http://www.w3.org/2000/svg"><path fill-rule="evenodd" clip-rule="evenodd" d="M1 2.5a1 1 0 100-2 1 1 0 000 2zm6 0a1 1 0 100-2 1 1 0 000 2zm7-1a1 1 0 11-2 0 1 1 0 012 0zm-13 7a1 1 0 100-2 1 1 0 000 2zm7-1a1 1 0 11-2 0 1 1 0 012 0zm5 1a1 1 0 100-2 1 1 0 000 2z" fill="#333"/></symbol>
<symbol id="i-close" viewBox="0 0 24 25" fill="none" xmlns="http://www.w3.org/2000/svg"><path d="M6 12.627h12v-1H6v1z" fill="#333"/></symbol>
<symbol id="i-external-link" viewBox="0 0 10 9" fill="none" xmlns="http://www.w3.org/2000/svg"><path d="M1 8.5l8-8m0 0H5m4 0v4" stroke="#333"/></symbol>
<symbol id="i-facebook" viewBox="0 0 20 23" fill="none" xmlns="http://www.w3.org/2000/svg"><path fill-rule="evenodd" clip-rule="evenodd" d="M15.083 7.624H11.65V5.34c0-.857.56-1.057.954-1.057h2.424V.513L11.69.5C7.985.5 7.142 3.312 7.142 5.11v2.514H5v3.884h2.142V22.5h4.508V11.508h3.433V7.624z" fill="#4A4A4A"/></symbol>
<symbol id="i-google-map-dot" xmlns="http://www.w3.org/2000/svg" viewBox="0 0 32 39"><path d="M15.815 18.258c-2.372 0-4.294-1.933-4.294-4.316 0-2.384 1.922-4.317 4.294-4.317 2.37 0 4.293 1.933 4.293 4.317 0 2.383-1.922 4.316-4.293 4.316M32 16.084C32 7.202 24.837 0 16 0 7.164 0 0 7.202 0 16.084c0 4.597 1.919 8.745 4.995 11.676L16 39l10.883-11.114h-.039C30.007 24.948 32 20.756 32 16.084" fill="#4A4A4A" fill-rule="evenodd"/></symbol>
<symbol id="i-left" xmlns="http://www.w3.org/2000/svg" fill="none" viewBox="0 0 16 16"><path stroke="currentColor" stroke-width="2" d="M6 4L2 8l4 4"/></symbol>
<symbol id="i-logo" class="NuxtLogo" viewBox="0 0 452 342" xmlns="http://www.w3.org/2000/svg"><path d="M139 330l-1-2c-2-4-2-8-1-13H29L189 31l67 121 22-16-67-121c-1-2-9-14-22-14-6 0-15 2-22 15L5 303c-1 3-8 16-2 27 4 6 10 12 24 12h136c-14 0-21-6-24-12z" fill="#00C58E"/><path d="M447 304L317 70c-2-2-9-15-22-15-6 0-15 3-22 15l-17 28v54l39-67 129 230h-49a23 23 0 01-2 14l-1 1c-6 11-21 12-23 12h76c3 0 17-1 24-12 3-5 5-14-2-26z" fill="#108775"/><path d="M376 330v-1l1-2c1-4 2-8 1-12l-4-12-102-178-15-27h-1l-15 27-102 178-4 12a24 24 0 002 15c4 6 10 12 24 12h190c3 0 18-1 25-12zM256 152l93 163H163l93-163z" fill="#2F495E"/></symbol>
<symbol id="i-menu-button" viewBox="0 0 24 25" fill="none" xmlns="http://www.w3.org/2000/svg"><path fill-rule="evenodd" clip-rule="evenodd" d="M22 4.5H2v1h20v-1zm0 8H2v1h20v-1zm-20 8h20v1H2v-1z" fill="#333"/></symbol>
<symbol id="i-open" viewBox="0 0 13 12" fill="none" xmlns="http://www.w3.org/2000/svg"><path d="M.5 6.5h12v-1H.5v1zM7 12V0H6v12h1z" fill="#333" fill-opacity=".5"/></symbol>
<symbol id="i-right" xmlns="http://www.w3.org/2000/svg" fill="none" viewBox="0 0 16 16"><path stroke="currentColor" stroke-width="2" d="M6 4l4 4-4 4"/></symbol>
<symbol id="i-search" viewBox="0 0 24 25" fill="none" xmlns="http://www.w3.org/2000/svg"><path fill-rule="evenodd" clip-rule="evenodd" d="M4.638 10.562a5.424 5.424 0 1110.848 0 5.424 5.424 0 01-10.848 0zM10.062 4.5a6.062 6.062 0 104.055 10.568l5.338 5.339a.319.319 0 00.452-.452l-5.34-5.338A6.062 6.062 0 0010.062 4.5z" fill="#333"/></symbol>
<symbol id="i-youtube" viewBox="0 0 22 21" fill="none" xmlns="http://www.w3.org/2000/svg"><path fill-rule="evenodd" clip-rule="evenodd" d="M18.742 3.798c1.122.126 2.054.97 2.316 2.115.37 1.617.37 3.38.37 5.046V11c0 1.678 0 3.457-.374 5.087-.263 1.144-1.195 1.989-2.316 2.115-2.657.298-5.346.3-8.024.298-2.678.001-5.368 0-8.025-.298-1.122-.127-2.054-.97-2.316-2.115C0 14.457 0 12.678 0 11s.004-3.457.378-5.087C.64 4.768 1.57 3.924 2.693 3.798c2.657-.298 5.347-.3 8.025-.298 2.677-.001 5.366 0 8.024.298zM7.95 7.223v7.117l2.862-1.49 3.95-2.057-6.812-3.57z" fill="#4A4A4A"/></symbol>
</svg>