<svg xmlns="http://www.w3.org/2000/svg" xmlns:xlink="http://www.w3.org/1999/xlink" width="32px" height="39px" viewBox="0 0 32 39" version="1.1">
    <!-- Generator: Sketch 49.1 (51147) - http://www.bohemiancoding.com/sketch -->
    <title>Fill 1</title>
    <desc>Created with Sketch.</desc>
    <defs/>
    <g id="index" stroke="none" stroke-width="1" fill="none" fill-rule="evenodd">
        <g id="contact" transform="translate(-704.000000, -432.000000)" fill="#4A4A4A">
            <path d="M719.814672,450.257962 C717.443459,450.257962 715.520988,448.32535 715.520988,445.941631 C715.520988,443.557911 717.443459,441.625299 719.814672,441.625299 C722.185884,441.625299 724.108355,443.557911 724.108355,445.941631 C724.108355,448.32535 722.185884,450.257962 719.814672,450.257962 M736,448.083898 C736,439.201834 728.836942,432 719.999506,432 C711.164046,432 704,439.201834 704,448.083898 C704,452.681427 705.918517,456.828841 708.995459,459.760051 L719.999506,471 L730.882965,459.886242 L730.844417,459.886242 C734.007351,456.948076 736,452.755949 736,448.083898" id="Fill-1"/>
        </g>
    </g>
</svg>